# Blender 4.4.3
# www.blender.org
o Cube
v 2.262781 0.122042 -4.573770
v 2.262781 -0.122042 -4.573770
v 2.262781 0.122042 4.573770
v 2.262781 -0.122042 4.573770
v -2.262781 0.122042 -4.573770
v -2.262781 -0.122042 -4.573770
v -2.262781 0.122042 4.573770
v -2.262781 -0.122042 4.573770
v 0.000000 -0.122042 -4.573770
v 0.000000 0.122042 4.573770
v 0.000000 -0.122042 4.573770
v 0.000000 0.122042 -4.573770
v -2.262781 -0.122042 0.000000
v 2.262781 0.122042 0.000000
v -2.262781 0.122042 0.000000
v 2.262781 -0.122042 0.000000
v 0.000000 -0.122042 0.000000
v 0.000000 0.122042 0.000000
v -2.262781 -0.122042 4.064409
v 2.262781 0.122042 4.064409
v 0.000000 -0.122042 4.064409
v 0.000000 0.122042 4.064409
v -2.262781 0.122042 4.064409
v 2.262781 -0.122042 4.064409
v -2.262781 0.122042 -4.084400
v 2.262781 -0.122042 -4.084400
v -2.262781 -0.122042 -4.084400
v 2.262781 0.122042 -4.084400
v 0.000000 -0.122042 -4.084400
v 0.000000 0.122042 -4.084400
v 2.262781 -0.122042 4.573770
v 0.000000 -0.122042 4.573770
v 2.262781 -0.122042 0.000000
v 0.000000 -0.122042 4.064409
v 2.262781 -0.122042 4.064409
v 2.262781 -0.122042 4.573770
v 0.000000 -0.122042 4.573770
v 0.000000 -0.122042 4.064409
v 2.262781 -0.122042 4.064409
v -2.262781 -3.517695 4.064409
v -2.262781 -3.517695 4.573770
v 0.000000 -3.517695 4.573770
v 2.262781 -3.517695 4.573770
v 0.000000 -3.517695 4.064409
v 2.262781 -3.517695 4.064409
v 0.000000 -3.517695 4.573770
v 2.262781 -3.517695 4.573770
v 2.262781 -3.517695 4.064409
v 0.000000 -3.517695 4.573770
v 2.262781 -3.517695 4.573770
v 2.262781 -3.517695 4.064409
v 0.000000 -3.517695 4.064409
v 0.000000 -3.458253 -4.573770
v -2.262781 -3.458253 -4.573770
v 2.262781 -3.458253 -4.084400
v 2.262781 -3.458253 -4.573770
v -2.262781 -3.458253 -4.084400
v 0.000000 -3.458253 -4.084400
v 2.262781 0.122042 4.573770
v -2.262781 0.122042 4.573770
v 0.000000 0.122042 4.573770
v 2.262781 0.122042 4.064409
v 0.000000 0.122042 4.064409
v -2.262781 0.122042 4.064409
v -2.262782 0.051490 4.573769
v -2.262782 11.719402 4.573769
v -2.262782 0.051490 4.064408
v -2.262782 11.719402 4.064408
v 2.262782 0.051490 4.573769
v 2.262782 11.719402 4.573769
v 2.262782 0.051490 4.064408
v 2.262782 11.719402 4.064408
v -2.262781 0.122042 -4.084400
v -2.262781 11.641105 -4.084400
v -2.262781 0.122042 -4.573770
v -2.262781 11.641105 -4.573770
v 2.262781 0.122042 -4.084400
v 2.262781 11.641105 -4.084400
v 2.262781 0.122042 -4.573770
v 2.262781 11.641105 -4.573770
vn -0.0000 1.0000 -0.0000
vn -0.0000 -0.0000 1.0000
vn -1.0000 -0.0000 -0.0000
vn -0.0000 -1.0000 -0.0000
vn 1.0000 -0.0000 -0.0000
vn -0.0000 -0.0000 -1.0000
vt 0.875000 0.736079
vt 0.750000 0.750000
vt 0.750000 0.736079
vt 0.625000 0.875000
vt 0.375000 1.000000
vt 0.375000 0.875000
vt 0.625000 0.236626
vt 0.375000 0.250000
vt 0.375000 0.236626
vt 0.375000 0.736079
vt 0.250000 0.750000
vt 0.250000 0.736079
vt 0.625000 0.736079
vt 0.375000 0.750000
vt 0.625000 0.375000
vt 0.375000 0.500000
vt 0.375000 0.375000
vt 0.625000 0.250000
vt 0.625000 0.750000
vt 0.750000 0.513374
vt 0.625000 0.625000
vt 0.625000 0.513374
vt 0.250000 0.513374
vt 0.125000 0.625000
vt 0.125000 0.513374
vt 0.375000 0.625000
vt 0.375000 0.513374
vt 0.250000 0.625000
vt 0.625000 0.013921
vt 0.375000 0.125000
vt 0.375000 0.013921
vt 0.875000 0.513374
vt 0.750000 0.625000
vt 0.625000 0.000000
vt 0.375000 0.000000
vt 0.125000 0.736079
vt 0.875000 0.625000
vt 0.875000 0.500000
vt 0.750000 0.500000
vt 0.625000 0.500000
vt 0.625000 0.125000
vt 0.000000 0.000000
vt 0.125000 0.750000
vt 0.250000 0.500000
vt 0.125000 0.500000
vt 0.875000 0.750000
vt 0.625000 1.000000
s 0
f 23/1/1 10/2/1 22/3/1
f 10/4/2 8/5/2 11/6/2
f 25/7/3 6/8/3 27/9/3
f 24/10/4 11/11/4 21/12/4
f 20/13/5 4/14/5 24/10/5
f 12/15/6 2/16/6 9/17/6
f 5/18/6 9/17/6 6/8/6
f 8/5/2 42/6/2 11/6/2
f 3/19/2 11/6/2 4/14/2
f 22/3/1 3/19/1 20/13/1
f 30/20/1 14/21/1 28/22/1
f 29/23/4 13/24/4 27/25/4
f 28/22/5 16/26/5 26/27/5
f 26/27/4 17/28/4 29/23/4
f 23/29/3 13/30/3 19/31/3
f 25/32/1 18/33/1 30/20/1
f 7/34/3 19/31/3 8/35/3
f 18/33/1 20/13/1 14/21/1
f 17/28/4 19/36/4 13/24/4
f 14/21/5 24/10/5 16/26/5
f 16/26/4 21/12/4 17/28/4
f 15/37/1 22/3/1 18/33/1
f 5/38/1 30/20/1 12/39/1
f 26/27/5 56/16/5 2/16/5
f 1/40/5 26/27/5 2/16/5
f 6/8/3 57/9/3 27/9/3
f 12/39/1 28/22/1 1/40/1
f 15/41/3 27/9/3 13/30/3
f 24/10/1 34/12/1 21/12/1
f 16/26/1 35/10/1 24/10/1
f 39/10/6 52/12/6 38/12/6
f 35/10/1 38/12/1 34/12/1
f 36/42/6 49/42/6 37/42/6
f 44/12/4 41/43/4 40/36/4
f 42/11/1 47/14/1 43/14/1
f 46/11/1 50/14/1 47/14/1
f 19/31/3 41/35/3 8/35/3
f 4/14/5 45/10/5 24/10/5
f 35/10/1 51/10/1 39/10/1
f 11/6/2 43/14/2 4/14/2
f 35/10/1 45/10/1 24/10/1
f 31/42/1 50/42/1 36/42/1
f 11/11/5 44/12/5 21/12/5
f 37/42/1 46/42/1 32/42/1
f 4/42/1 47/42/1 31/42/1
f 21/12/6 40/36/6 19/36/6
f 32/42/1 42/42/1 11/42/1
f 56/16/4 58/23/4 53/44/4
f 53/44/4 57/25/4 54/45/4
f 27/25/2 58/23/2 29/23/2
f 29/23/2 55/27/2 26/27/2
f 9/17/6 54/8/6 6/8/6
f 2/16/6 53/17/6 9/17/6
f 23/1/1 63/3/1 22/3/1
f 22/3/1 61/2/1 10/2/1
f 10/2/1 60/46/1 7/46/1
f 22/3/1 62/13/1 20/13/1
f 10/4/1 59/19/1 3/19/1
f 66/34/3 67/8/3 65/35/3
f 68/18/6 71/16/6 67/8/6
f 72/40/5 69/14/5 71/16/5
f 70/19/2 65/5/2 69/14/2
f 71/16/4 65/43/4 67/45/4
f 68/38/1 70/19/1 72/40/1
f 74/34/3 75/8/3 73/35/3
f 76/18/6 79/16/6 75/8/6
f 80/40/5 77/14/5 79/16/5
f 78/19/2 73/5/2 77/14/2
f 79/16/4 73/43/4 75/45/4
f 76/38/1 78/19/1 80/40/1
f 23/1/1 7/46/1 10/2/1
f 10/4/2 7/47/2 8/5/2
f 25/7/3 5/18/3 6/8/3
f 24/10/4 4/14/4 11/11/4
f 20/13/5 3/19/5 4/14/5
f 12/15/6 1/40/6 2/16/6
f 5/18/6 12/15/6 9/17/6
f 8/5/2 41/5/2 42/6/2
f 3/19/2 10/4/2 11/6/2
f 22/3/1 10/2/1 3/19/1
f 30/20/1 18/33/1 14/21/1
f 29/23/4 17/28/4 13/24/4
f 28/22/5 14/21/5 16/26/5
f 26/27/4 16/26/4 17/28/4
f 23/29/3 15/41/3 13/30/3
f 25/32/1 15/37/1 18/33/1
f 7/34/3 23/29/3 19/31/3
f 18/33/1 22/3/1 20/13/1
f 17/28/4 21/12/4 19/36/4
f 14/21/5 20/13/5 24/10/5
f 16/26/4 24/10/4 21/12/4
f 15/37/1 23/1/1 22/3/1
f 5/38/1 25/32/1 30/20/1
f 26/27/5 55/27/5 56/16/5
f 1/40/5 28/22/5 26/27/5
f 6/8/3 54/8/3 57/9/3
f 12/39/1 30/20/1 28/22/1
f 15/41/3 25/7/3 27/9/3
f 24/10/1 35/10/1 34/12/1
f 16/26/1 33/26/1 35/10/1
f 39/10/6 51/10/6 52/12/6
f 35/10/1 39/10/1 38/12/1
f 36/42/6 50/42/6 49/42/6
f 44/12/4 42/11/4 41/43/4
f 42/11/1 46/11/1 47/14/1
f 46/11/1 49/11/1 50/14/1
f 19/31/3 40/31/3 41/35/3
f 4/14/5 43/14/5 45/10/5
f 35/10/1 48/10/1 51/10/1
f 11/6/2 42/6/2 43/14/2
f 35/10/1 48/10/1 45/10/1
f 31/42/1 47/42/1 50/42/1
f 11/11/5 42/11/5 44/12/5
f 37/42/1 49/42/1 46/42/1
f 4/42/1 43/42/1 47/42/1
f 21/12/6 44/12/6 40/36/6
f 32/42/1 46/42/1 42/42/1
f 56/16/4 55/27/4 58/23/4
f 53/44/4 58/23/4 57/25/4
f 27/25/2 57/25/2 58/23/2
f 29/23/2 58/23/2 55/27/2
f 9/17/6 53/17/6 54/8/6
f 2/16/6 56/16/6 53/17/6
f 23/1/1 64/1/1 63/3/1
f 22/3/1 63/3/1 61/2/1
f 10/2/1 61/2/1 60/46/1
f 22/3/1 63/3/1 62/13/1
f 10/4/1 61/4/1 59/19/1
f 66/34/3 68/18/3 67/8/3
f 68/18/6 72/40/6 71/16/6
f 72/40/5 70/19/5 69/14/5
f 70/19/2 66/47/2 65/5/2
f 71/16/4 69/14/4 65/43/4
f 68/38/1 66/46/1 70/19/1
f 74/34/3 76/18/3 75/8/3
f 76/18/6 80/40/6 79/16/6
f 80/40/5 78/19/5 77/14/5
f 78/19/2 74/47/2 73/5/2
f 79/16/4 77/14/4 73/43/4
f 76/38/1 74/46/1 78/19/1
